:SAMPLES-PER-SECOND 30
:FULLY-SPECIFIED
:DEGREES
77
root  3.05918 39.2967 27.3547 -144.423 -81.6716 137.837
RightUpLeg  -4.68072 1.4577 -9.81942
RightLeg  61.8001 -3.70012 -7.97823
RightFoot  5.79578 -0.640694 4.53685
RightToes  1.74622e-010 0 -3.6325e-017
Spine  4.62458 2.02941 0.50347
Spine1  11.1144 3.97365 -6.23461
HEad  -6.16585 -16.8713 7.25155
LeftShoulder1  8.62242 -12.0833 -48.2846
LeftArm  -10.3267 24.1129 -25.7894
LeftForeArm  24.6712 -7.46351 -4.83397
LeftHand  -0.244104 0.0205437 5.32207
RightShoulder  7.43386 10.9292 44.9846
RightArm  -1.35692 -2.2152 34.3915
RightForeArm  9.77881 5.76985 8.62073
RightHand  -1.44507 3.79131 -18.3859
LeftUpLeg  -13.0108 15.1615 -3.23631
LeftLeg  18.483 -0.915798 -0.0885641
LeftFoot  1.23326 -0.0372584 0.2695
LeftToes  -2.63786e-011 -1.12672e-010 -2.07835e-011
78
root  1.87086 39.7269 27.4935 -150.477 -81.2687 143.758
RightUpLeg  -9.66921 -0.23572 -8.47978
RightLeg  62.9598 -3.74493 -8.50129
RightFoot  3.11167 -0.71175 5.77831
RightToes  1.74622e-010 0 -3.6325e-017
Spine  5.44193 1.19907 -0.202242
Spine1  10.8533 2.64937 -4.68561
HEad  -6.29727 -19.0293 7.86254
LeftShoulder1  8.43332 -11.8756 -47.8565
LeftArm  -11.784 20.6674 -25.9054
LeftForeArm  24.1314 -10.5682 -4.53793
LeftHand  -0.244104 0.0205437 5.32207
RightShoulder  7.44104 10.9837 44.8533
RightArm  0.149744 -4.51602 34.0252
RightForeArm  13.0347 4.8598 8.63106
RightHand  -1.34133 3.37341 -17.887
LeftUpLeg  -9.35288 15.629 -2.074
LeftLeg  16.1132 -0.48361 -0.675024
LeftFoot  0.46951 0.0085387 -0.112108
LeftToes  -2.63786e-011 -1.12672e-010 -2.07835e-011
79
root  0.718011 40.0538 27.5855 -154.85 -80.8135 148.155
RightUpLeg  -13.9052 -2.61686 -6.89617
RightLeg  60.6607 -4.45941 -9.02852
RightFoot  1.25128 -0.64494 5.89231
RightToes  1.74622e-010 0 -3.6325e-017
Spine  6.18237 0.470007 -1.19277
Spine1  10.5392 1.34543 -3.17885
HEad  -6.3151 -21.1929 8.77097
LeftShoulder1  8.15742 -11.6142 -47.0777
LeftArm  -12.591 17.8458 -25.9127
LeftForeArm  22.1881 -15.4194 -3.979
LeftHand  -0.244104 0.0205437 5.32207
RightShoulder  7.28619 10.8489 44.3079
RightArm  2.6804 -7.66055 33.2602
RightForeArm  14.915 6.86285 8.90921
RightHand  -1.26635 3.04078 -17.5536
LeftUpLeg  -5.88252 14.0783 -0.764095
LeftLeg  13.8297 2.03137 -1.58828
LeftFoot  -0.577897 0.0393749 -0.378263
LeftToes  -2.63786e-011 -1.12672e-010 -2.07835e-011
80
root  -0.439181 40.2917 27.6621 -158.681 -79.9101 152.039
RightUpLeg  -17.1138 -5.04374 -5.11697
RightLeg  55.1509 -5.65165 -9.07463
RightFoot  -0.287455 -0.402755 4.12596
RightToes  1.74622e-010 0 -3.6325e-017
Spine  6.89522 -0.137219 -2.06708
Spine1  10.0454 0.270552 -2.00721
HEad  -6.197 -23.1068 9.80256
LeftShoulder1  7.93139 -11.3995 -46.4166
LeftArm  -13.8715 16.039 -25.1267
LeftForeArm  21.0439 -22.0669 -3.80968
LeftHand  -0.244104 0.0205437 5.32207
RightShoulder  7.03335 10.5611 43.6126
RightArm  6.74578 -10.8108 32.2793
RightForeArm  12.7021 9.97207 8.98006
RightHand  -1.22451 2.93241 -17.2014
LeftUpLeg  -2.47378 10.8581 0.230648
LeftLeg  11.3134 6.38192 -2.77159
LeftFoot  -1.24264 0.0447139 -0.419242
LeftToes  -2.63786e-011 -1.12672e-010 -2.07835e-011
81
root  -1.60537 40.4119 27.7009 -160.487 -78.4765 153.89
RightUpLeg  -18.9334 -7.67019 -3.58594
RightLeg  46.4428 -6.77457 -7.90302
RightFoot  -2.2714 -0.278645 3.35643
RightToes  1.74622e-010 0 -3.6325e-017
Spine  7.39823 -0.623711 -3.19056
Spine1  9.57967 -0.570222 -1.25623
HEad  -5.9259 -24.6863 10.7467
LeftShoulder1  7.78271 -11.2515 -45.9899
LeftArm  -17.492 14.9898 -23.3761
LeftForeArm  23.358 -29.4947 -5.0958
LeftHand  -0.244104 0.0205437 5.32207
RightShoulder  6.79331 10.2448 43.0641
RightArm  10.8436 -13.4683 31.1923
RightForeArm  8.3728 12.7376 8.57312
RightHand  -1.20551 2.90088 -17.0033
LeftUpLeg  0.509251 7.83813 0.352045
LeftLeg  9.23222 10.7847 -3.93767
LeftFoot  -2.09749 0.0619094 -0.603165
LeftToes  -2.63786e-011 -1.12672e-010 -2.07835e-011
82
root  -2.80794 40.3695 27.6791 -159.576 -76.6667 153.031
RightUpLeg  -19.4692 -11.8202 -2.29375
RightLeg  35.2783 -7.65878 -6.09455
RightFoot  -3.87861 -0.299528 4.17916
RightToes  1.74622e-010 0 -3.6325e-017
Spine  7.33292 -1.04296 -4.80664
Spine1  9.42305 -1.22107 -0.913449
HEad  -5.50961 -25.9706 11.4529
LeftShoulder1  7.6486 -11.1465 -45.5045
LeftArm  -20.8988 14.1775 -21.3337
LeftForeArm  26.1023 -36.5401 -6.73191
LeftHand  -0.244104 0.0205437 5.32207
RightShoulder  6.60446 10.0125 42.5563
RightArm  12.4748 -15.5716 30.328
RightForeArm  5.66667 14.3408 8.03379
RightHand  -1.20344 2.80794 -17.1593
LeftUpLeg  2.78128 6.39764 -0.53208
LeftLeg  8.55111 13.9965 -4.55691
LeftFoot  -3.87284 0.0837553 -0.921542
LeftToes  -2.63786e-011 -1.12672e-010 -2.07835e-011
83
root  -4.05295 40.2445 27.6064 -157.611 -74.7485 151.068
RightUpLeg  -19.1294 -19.0733 -0.395258
RightLeg  22.8564 -8.49256 -4.11611
RightFoot  -4.59033 -0.285176 4.29455
RightToes  1.74622e-010 0 -3.6325e-017
Spine  6.74321 -1.48242 -6.45852
Spine1  9.5816 -1.78664 -0.630955
HEad  -5.01472 -26.9683 11.8549
LeftShoulder1  7.49435 -11.048 -44.8641
LeftArm  -23.84 13.3752 -19.3725
LeftForeArm  28.243 -42.1923 -8.26556
LeftHand  -0.244104 0.0205437 5.32207
RightShoulder  6.44487 9.87505 41.9131
RightArm  10.9837 -17.2174 29.8519
RightForeArm  5.37829 14.5659 7.75195
RightHand  -1.22466 2.81422 -17.4406
LeftUpLeg  4.91047 5.84349 -2.07609
LeftLeg  8.33199 16.3603 -4.63609
LeftFoot  -5.77386 0.088539 -1.09666
LeftToes  -2.63786e-011 -1.12672e-010 -2.07835e-011
84
root  -5.32186 40.0881 27.4821 -155.836 -72.7748 149.134
RightUpLeg  -17.3411 -21.9561 -0.240484
RightLeg  9.94863 -16.0481 0.599858
RightFoot  -4.95237 -0.212383 3.18738
RightToes  1.74622e-010 0 -3.6325e-017
Spine  5.96128 -1.85055 -7.91304
Spine1  9.87948 -2.27064 -0.157384
HEad  -4.43537 -27.7687 11.9166
LeftShoulder1  7.33862 -10.9318 -44.2587
LeftArm  -26.1547 12.4842 -17.5471
LeftForeArm  29.2911 -45.8106 -9.43396
LeftHand  -0.244104 0.0205437 5.32207
RightShoulder  6.31072 9.76789 41.3316
RightArm  7.39503 -18.5097 29.4535
RightForeArm  5.7947 13.6982 7.76953
RightHand  -1.27163 3.05674 -17.5929
LeftUpLeg  7.27521 5.42997 -3.86186
LeftLeg  7.88062 18.3232 -4.67058
LeftFoot  -7.43644 0.101089 -1.68292
LeftToes  -2.63786e-011 -1.12672e-010 -2.07835e-011
85
root  -6.64421 39.8346 27.2813 -154.699 -70.3255 147.629
RightUpLeg  -13.5499 -9.14894 -5.42819
RightLeg  -3.07237 -38.368 10.1897
RightFoot  -5.69771 -0.16169 2.57865
RightToes  1.74622e-010 0 -3.6325e-017
Spine  4.96352 -1.96244 -9.32263
Spine1  10.2099 -2.41455 0.215427
HEad  -3.63216 -28.5152 11.5731
LeftShoulder1  7.16556 -10.7741 -43.6613
LeftArm  -27.9107 11.54 -16.0814
LeftForeArm  29.4237 -47.2842 -9.98671
LeftHand  -0.244104 0.0205437 5.32207
RightShoulder  6.21371 9.64654 41.051
RightArm  3.12466 -19.3692 28.9354
RightForeArm  5.70704 12.1578 7.89377
RightHand  -1.33659 3.40332 -17.7658
LeftUpLeg  9.67697 5.25352 -5.70812
LeftLeg  7.95643 20.34 -4.82073
LeftFoot  -9.48815 0.107645 -3.30218
LeftToes  -2.63786e-011 -1.12672e-010 -2.07835e-011
86
root  -8.03741 39.4641 27.0098 -154.762 -67.1084 147.223
RightUpLeg  -13.1743 -8.37574 -5.14791
RightLeg  -9.04133 -44.8933 13.4395
RightFoot  -7.45954 -0.185949 3.9593
RightToes  1.74622e-010 0 -3.6325e-017
Spine  3.61619 -1.87554 -10.3566
Spine1  10.5527 -2.13661 0.0552975
HEad  -2.55628 -29.1015 10.8065
LeftShoulder1  6.94939 -10.5566 -42.9594
LeftArm  -29.3797 11.1321 -15.125
LeftForeArm  29.1645 -47.34 -10.0309
LeftHand  -0.244104 0.0205437 5.32207
RightShoulder  6.14639 9.55055 40.8926
RightArm  -0.904682 -19.5476 28.5936
RightForeArm  5.8349 10.1931 7.87096
RightHand  -1.40804 3.70093 -18.1007
LeftUpLeg  11.7843 5.35391 -7.68229
LeftLeg  9.17768 22.997 -4.64944
LeftFoot  -11.8047 0.0519602 -5.13271
LeftToes  -2.63786e-011 -1.12672e-010 -2.07835e-011
87
root  -9.42892 39.1799 26.7309 -157.089 -63.8159 149.38
RightUpLeg  -12.4204 -7.37714 -4.25039
RightLeg  -11.6832 -48.8736 15.1276
RightFoot  -8.3246 -0.128265 2.66877
RightToes  1.74622e-010 0 -3.6325e-017
Spine  2.25277 -1.87791 -9.44923
Spine1  10.9958 -1.88665 -0.551722
HEad  -1.46916 -29.2824 9.76578
LeftShoulder1  6.7887 -10.3462 -42.5806
LeftArm  -30.3823 11.9831 -14.204
LeftForeArm  28.7259 -46.871 -9.88064
LeftHand  -0.244104 0.0205437 5.32207
RightShoulder  6.10198 9.53477 40.6255
RightArm  -4.04821 -19.1048 28.5579
RightForeArm  6.78866 8.32942 7.50451
RightHand  -1.45552 3.89073 -18.3268
LeftUpLeg  13.687 6.10789 -8.83607
LeftLeg  10.3721 25.2981 -4.27678
LeftFoot  -13.2902 -0.0280748 -6.32004
LeftToes  -2.63786e-011 -1.12672e-010 -2.07835e-011
88
root  -10.8372 39.0432 26.4365 -160.89 -61.2514 153.443
RightUpLeg  -11.908 -7.52173 -2.77349
RightLeg  -9.9364 -49.6729 14.9217
RightFoot  -8.93222 0.00202073 -2.94617
RightToes  1.74622e-010 0 -3.6325e-017
Spine  1.02463 -2.20321 -6.17662
Spine1  11.4266 -1.96888 -1.4107
HEad  -0.725425 -29.1609 8.64458
LeftShoulder1  6.8193 -10.2574 -43.0756
LeftArm  -30.2758 13.8757 -12.9826
LeftForeArm  28.0988 -45.7589 -9.50992
LeftHand  -0.244104 0.0205437 5.32207
RightShoulder  6.08302 9.54695 40.447
RightArm  -5.9994 -18.5497 28.3696
RightForeArm  7.54093 7.45246 6.99958
RightHand  -1.44362 3.89015 -18.1812
LeftUpLeg  15.722 13.1139 -6.42436
LeftLeg  12.3741 20.1064 -3.48651
LeftFoot  -14.2061 -0.132815 -8.50123
LeftToes  -2.63786e-011 -1.12672e-010 -2.07835e-011
89
root  -12.2603 39.0195 26.0522 -165.684 -58.8509 158.879
RightUpLeg  -12.6679 -8.16442 -0.690399
RightLeg  -3.07209 -48.2044 11.3754
RightFoot  -9.81555 0.0620113 -9.87989
RightToes  1.74622e-010 0 -3.6325e-017
Spine  -0.125571 -2.38308 -1.36647
Spine1  11.8219 -1.94787 -2.21897
HEad  -0.334111 -29.0355 7.45503
LeftShoulder1  6.94933 -10.238 -44.0096
LeftArm  -28.8012 15.9658 -12.3474
LeftForeArm  27.4222 -43.2901 -8.69338
LeftHand  -0.244104 0.0205437 5.32207
RightShoulder  6.07372 9.48422 40.5922
RightArm  -7.06374 -18.1377 27.7477
RightForeArm  7.18278 7.82548 6.73794
RightHand  -1.37539 3.6709 -17.7484
LeftUpLeg  18.1252 29.5794 1.16514
LeftLeg  16.8963 4.19999 -1.56262
LeftFoot  -13.6256 -0.180287 -13.6185
LeftToes  -2.63786e-011 -1.12672e-010 -2.07835e-011
90
root  -13.6154 38.9728 25.5231 -169.9 -55.3715 163.761
RightUpLeg  -14.9611 -9.54129 1.9597
RightLeg  8.20536 -43.8656 3.85034
RightFoot  -11.5461 -0.0987226 -13.3974
RightToes  1.74622e-010 0 -3.6325e-017
Spine  -0.980395 -2.02834 2.50105
Spine1  11.8572 -1.51836 -2.50692
HEad  0.00207708 -28.7636 6.22896
LeftShoulder1  6.92711 -10.0989 -44.3296
LeftArm  -26.4384 18.1937 -13.4571
LeftForeArm  26.6129 -39.7163 -7.60767
LeftHand  -0.244104 0.0205437 5.32207
RightShoulder  6.06278 9.38873 40.8381
RightArm  -7.60483 -17.4318 27.2342
RightForeArm  6.39094 8.80893 6.65047
RightHand  -1.28863 3.36275 -17.2225
LeftUpLeg  17.1007 36.0073 6.13581
LeftLeg  25.9244 -1.90965 -0.174017
LeftFoot  -8.99016 0.479578 -19.5737
LeftToes  -2.63786e-011 -1.12672e-010 -2.07835e-011
91
root  -14.76 38.9228 24.9243 -172.947 -51.2319 167.476
RightUpLeg  -15.9383 -12.8729 5.40186
RightLeg  14.4995 -35.8574 -0.683253
RightFoot  -13.107 -0.30055 -13.9197
RightToes  1.74622e-010 0 -3.6325e-017
Spine  -0.887472 -1.65328 4.50863
Spine1  11.4399 -1.27586 -1.59346
HEad  0.378664 -27.9239 5.41837
LeftShoulder1  6.75079 -9.86075 -43.9523
LeftArm  -23.759 21.0265 -15.9041
LeftForeArm  25.2677 -36.1743 -6.67785
LeftHand  -0.244104 0.0205437 5.32207
RightShoulder  6.08956 9.4174 40.9351
RightArm  -7.90354 -15.9518 27.4361
RightForeArm  6.20023 9.96775 6.52379
RightHand  -1.22926 3.16134 -16.8243
LeftUpLeg  10.8418 32.7532 6.69178
LeftLeg  37.9613 -0.691891 -0.267473
LeftFoot  1.23368 2.3178 -21.2522
LeftToes  -2.63786e-011 -1.12672e-010 -2.07835e-011
